<svg xmlns="http://www.w3.org/2000/svg" width="1040" height="580" viewBox="0 0 1040 580">
  <rect width="1040" height="580" fill="#0d1117"/>
  <style>
    .frame{fill:#161b22;stroke:#30363d;stroke-width:2}.head{fill:#58a6ff}.orange{fill:#e8730a}.red{fill:#f85149}.green{fill:#3fb950}.purple{fill:#a371f7}
    .t{font-family:Arial,sans-serif;fill:#e6edf3}.m{font-family:Arial,sans-serif;fill:#8b949e}.s{font-size:12px}.b{font-size:17px;font-weight:bold}.v{font-size:30px;font-weight:bold}
  </style>
  <g transform="translate(20 20)"><rect class="frame" width="320" height="170" rx="6"/><rect class="head" width="320" height="28" rx="6"/><text class="t b" x="10" y="20">RACK MONITOR</text><text class="m s" x="34" y="49">GESAMTVERBRAUCH</text><text class="t v" x="34" y="86">184 W</text><text class="m s" x="180" y="49">RACK TEMP</text><text class="t v" x="180" y="86">27.4 C</text><rect x="34" y="120" width="120" height="5" fill="#f85149"/><rect x="180" y="120" width="120" height="5" fill="#3fb950"/><text class="m s" x="34" y="151">DATA OK</text></g>
  <g transform="translate(360 20)"><rect class="frame" width="320" height="170" rx="6"/><rect class="orange" width="320" height="28" rx="6"/><text class="t b" x="10" y="20">STROM</text><text class="m s" x="34" y="48">UNRAID</text><text class="t v" x="34" y="79">92 W</text><text class="m s" x="174" y="48">PROXMOX</text><text class="t v" x="174" y="79">31 W</text><text class="m s" x="34" y="112">NAS</text><text class="t v" x="34" y="143">14 W</text><text class="m s" x="174" y="112">JETKVM+MODEM</text><text class="t v" x="174" y="143">12 W</text></g>
  <g transform="translate(700 20)"><rect class="frame" width="320" height="170" rx="6"/><rect class="red" width="320" height="28" rx="6"/><text class="t b" x="10" y="20">TEMPERATUREN</text><text class="m s" x="34" y="48">RACK</text><text class="t v" x="34" y="79">27 C</text><text class="m s" x="174" y="48">UNRAID CPU</text><text class="t v" x="174" y="79">49 C</text><text class="m s" x="34" y="112">PROXMOX CPU</text><text class="t v" x="34" y="143">44 C</text><text class="m s" x="174" y="112">NAS</text><text class="t v" x="174" y="143">38 C</text></g>
  <g transform="translate(20 210)"><rect class="frame" width="320" height="170" rx="6"/><rect class="green" width="320" height="28" rx="6"/><text class="t b" x="10" y="20">CPU / RAM / DISK</text><text class="t b" x="34" y="48">UNRAID</text><text class="t b" x="128" y="48">PROX</text><text class="t b" x="226" y="48">NAS</text><text class="m s" x="34" y="76">CPU 18%</text><text class="m s" x="34" y="105">RAM 42%</text><text class="m s" x="34" y="134">DISK 61%</text><text class="m s" x="128" y="76">CPU 9%</text><text class="m s" x="128" y="105">RAM 31%</text><text class="m s" x="128" y="134">DISK 44%</text><text class="m s" x="226" y="76">CPU 7%</text><text class="m s" x="226" y="105">RAM 36%</text><text class="m s" x="226" y="134">DISK 52%</text></g>
  <g transform="translate(360 210)"><rect class="frame" width="320" height="170" rx="6"/><rect class="purple" width="320" height="28" rx="6"/><text class="t b" x="10" y="20">TRENDS 1H</text><polyline points="34,125 55,119 75,121 95,90 115,98 135,82 155,91" fill="none" stroke="#e8730a" stroke-width="3"/><polyline points="174,115 195,110 215,108 235,104 255,101 275,99 295,96" fill="none" stroke="#a371f7" stroke-width="3"/><text class="m s" x="34" y="48">RACK-VERBRAUCH</text><text class="m s" x="174" y="48">RACK-TEMPERATUR</text></g>
  <g transform="translate(700 210)"><rect class="frame" width="320" height="170" rx="6"/><rect class="orange" width="320" height="28" rx="6"/><text class="t b" x="10" y="20">STROMKOSTEN</text><text class="m s" x="34" y="50">AKTUELLER PREIS</text><text class="t v" x="34" y="85">0.312 EUR/kWh</text><text class="m s" x="34" y="118">PRO STUNDE 0.06 EUR</text><text class="m s" x="145" y="118">PRO TAG 1.38 EUR</text><text class="m s" x="34" y="146">30 TAGE 41.39 EUR</text></g>
  <g transform="translate(20 400)"><rect class="frame" width="320" height="170" rx="6"/><rect class="head" width="320" height="28" rx="6"/><text class="t b" x="10" y="20">DIAGNOSE</text><text class="t s" x="34" y="51">HA API: ONLINE</text><text class="t s" x="180" y="51">DATA: FRESH</text><text class="m s" x="34" y="77">WLAN: -51 dBm</text><text class="m s" x="180" y="77">IP: 10.10.20.42</text><text class="m s" x="34" y="103">UPTIME: 4d 12h</text><text class="m s" x="180" y="103">HEAP: 192 kB</text><text class="m s" x="34" y="129">PSRAM: 6812 kB</text><text class="m s" x="34" y="153">FW 0.2.0</text></g>
  <g transform="translate(360 400)"><rect class="frame" width="320" height="170" rx="6"/><rect class="red" width="320" height="28" rx="6"/><text class="t b" x="10" y="20">KRITISCHER ALARM</text><rect x="22" y="39" width="276" height="82" fill="#0d1117" stroke="#f85149"/><text class="m s" x="34" y="58">URSACHE</text><text class="t b" x="34" y="84">Rack-Temperatur kritisch</text><text class="m s" x="34" y="108">Rack 36.2 C</text><text class="m s" x="34" y="143">B2 lange druecken: quittieren</text></g>
  <text class="m s" x="705" y="505">Schematic UI preview</text><text class="m s" x="705" y="527">Actual values and rendering depend on</text><text class="m s" x="705" y="545">your ESPHome and Home Assistant setup.</text>
</svg>
